<svg xmlns="http://www.w3.org/2000/svg" viewBox="0 0 24 24" width="24" height="24" fill="white">
  <path d="M17.472 14.382c-.297-.149-1.758-.867-2.03-.967-.273-.099-.471-.148-.67.15-.197.297-.767.966-.94 1.164-.173.199-.347.223-.644.075-.297-.15-1.255-.463-2.39-1.475-.883-.788-1.48-1.761-1.653-2.059-.173-.297-.018-.458.13-.606.134-.133.298-.347.446-.52.149-.174.198-.298.298-.497.099-.198.05-.371-.025-.52-.075-.149-.669-1.612-.916-2.207-.242-.579-.487-.5-.669-.51-.173-.008-.371-.01-.57-.01-.198 0-.52.074-.792.372-.272.297-1.04 1.016-1.04 2.479 0 1.462 1.065 2.875 1.213 3.074.149.198 2.096 3.2 5.077 4.487.709.306 1.262.489 1.694.625.712.227 1.36.195 1.871.118.571-.085 1.758-.719 2.006-1.413.248-.694.248-1.289.173-1.413-.074-.124-.272-.198-.57-.347zM12.05 21.785h-.01a9.865 9.865 0 0 1-5.031-1.378l-.361-.214-3.741.981.998-3.648-.235-.374A9.86 9.86 0 0 1 2.17 12.01C2.17 6.576 6.596 2.15 12.05 2.15c2.653 0 5.143 1.033 7.016 2.91a9.856 9.856 0 0 1 2.9 7.01c-.004 5.435-4.43 9.86-9.87 9.86l-.046-.001zM20.52 3.449C18.24 1.226 15.24 0 12.05 0 5.464 0 .104 5.334.1 11.893a11.793 11.793 0 0 0 1.6 5.952L0 24l6.335-1.652A11.882 11.882 0 0 0 12.003 24h.053c6.584 0 11.946-5.335 11.949-11.893a11.82 11.82 0 0 0-3.485-8.658z"/>
</svg>
